<mxfile host="app.diagrams.net" agent="Mozilla/5.0 (Windows NT 10.0; Win64; x64) AppleWebKit/537.36 (KHTML, like Gecko) Chrome/130.0.0.0 Safari/537.36" version="24.8.3">
  <diagram name="Page-1" id="ILP9-f68ZLWvMjHwj-SV">
    <mxGraphModel dx="1069" dy="857" grid="0" gridSize="10" guides="1" tooltips="1" connect="1" arrows="1" fold="1" page="0" pageScale="1" pageWidth="850" pageHeight="1100" math="0" shadow="0">
      <root>
        <mxCell id="0" />
        <mxCell id="1" parent="0" />
        <mxCell id="An8mYX0iyclEcx4Pc8yn-1" value="" style="edgeStyle=orthogonalEdgeStyle;rounded=0;orthogonalLoop=1;jettySize=auto;html=1;" edge="1" parent="1" source="An8mYX0iyclEcx4Pc8yn-2" target="An8mYX0iyclEcx4Pc8yn-4">
          <mxGeometry relative="1" as="geometry" />
        </mxCell>
        <mxCell id="An8mYX0iyclEcx4Pc8yn-2" value="Start" style="ellipse;whiteSpace=wrap;html=1;" vertex="1" parent="1">
          <mxGeometry x="365" y="20" width="115" height="40" as="geometry" />
        </mxCell>
        <mxCell id="An8mYX0iyclEcx4Pc8yn-3" value="" style="edgeStyle=none;curved=1;rounded=0;orthogonalLoop=1;jettySize=auto;html=1;fontSize=12;startSize=8;endSize=8;" edge="1" parent="1" source="An8mYX0iyclEcx4Pc8yn-4" target="An8mYX0iyclEcx4Pc8yn-6">
          <mxGeometry relative="1" as="geometry" />
        </mxCell>
        <mxCell id="An8mYX0iyclEcx4Pc8yn-4" value="int: n, k, e = [], e_out = [], i, v" style="shape=hexagon;perimeter=hexagonPerimeter2;whiteSpace=wrap;html=1;fixedSize=1;" vertex="1" parent="1">
          <mxGeometry x="362.5" y="90" width="120" height="80" as="geometry" />
        </mxCell>
        <mxCell id="An8mYX0iyclEcx4Pc8yn-5" value="" style="edgeStyle=orthogonalEdgeStyle;rounded=0;orthogonalLoop=1;jettySize=auto;html=1;" edge="1" parent="1" source="An8mYX0iyclEcx4Pc8yn-6" target="An8mYX0iyclEcx4Pc8yn-8">
          <mxGeometry relative="1" as="geometry" />
        </mxCell>
        <mxCell id="An8mYX0iyclEcx4Pc8yn-6" value="input:&lt;div&gt;n&lt;/div&gt;" style="shape=parallelogram;perimeter=parallelogramPerimeter;whiteSpace=wrap;html=1;fixedSize=1;" vertex="1" parent="1">
          <mxGeometry x="360" y="200" width="120" height="40" as="geometry" />
        </mxCell>
        <mxCell id="An8mYX0iyclEcx4Pc8yn-7" value="" style="edgeStyle=orthogonalEdgeStyle;rounded=0;orthogonalLoop=1;jettySize=auto;html=1;" edge="1" parent="1" source="An8mYX0iyclEcx4Pc8yn-8" target="An8mYX0iyclEcx4Pc8yn-10">
          <mxGeometry relative="1" as="geometry" />
        </mxCell>
        <mxCell id="An8mYX0iyclEcx4Pc8yn-8" value="i &amp;lt; n" style="rhombus;whiteSpace=wrap;html=1;" vertex="1" parent="1">
          <mxGeometry x="380" y="270" width="80" height="80" as="geometry" />
        </mxCell>
        <mxCell id="An8mYX0iyclEcx4Pc8yn-9" value="" style="edgeStyle=orthogonalEdgeStyle;rounded=0;orthogonalLoop=1;jettySize=auto;html=1;" edge="1" parent="1" source="An8mYX0iyclEcx4Pc8yn-10" target="An8mYX0iyclEcx4Pc8yn-11">
          <mxGeometry relative="1" as="geometry" />
        </mxCell>
        <mxCell id="An8mYX0iyclEcx4Pc8yn-10" value="Input:&lt;div&gt;num&lt;/div&gt;" style="shape=parallelogram;perimeter=parallelogramPerimeter;whiteSpace=wrap;html=1;fixedSize=1;" vertex="1" parent="1">
          <mxGeometry x="490" y="280" width="120" height="60" as="geometry" />
        </mxCell>
        <mxCell id="An8mYX0iyclEcx4Pc8yn-11" value="append num to e" style="rounded=0;whiteSpace=wrap;html=1;" vertex="1" parent="1">
          <mxGeometry x="490" y="370" width="120" height="60" as="geometry" />
        </mxCell>
        <mxCell id="An8mYX0iyclEcx4Pc8yn-12" value="Y" style="text;strokeColor=none;align=center;fillColor=none;html=1;verticalAlign=middle;whiteSpace=wrap;rounded=0;" vertex="1" parent="1">
          <mxGeometry x="450" y="280" width="60" height="30" as="geometry" />
        </mxCell>
        <mxCell id="An8mYX0iyclEcx4Pc8yn-13" value="" style="endArrow=classic;html=1;rounded=0;exitX=0;exitY=0.5;exitDx=0;exitDy=0;" edge="1" parent="1" source="An8mYX0iyclEcx4Pc8yn-11">
          <mxGeometry width="50" height="50" relative="1" as="geometry">
            <mxPoint x="425" y="440" as="sourcePoint" />
            <mxPoint x="425" y="350" as="targetPoint" />
            <Array as="points">
              <mxPoint x="425" y="400" />
            </Array>
          </mxGeometry>
        </mxCell>
        <mxCell id="An8mYX0iyclEcx4Pc8yn-19" value="" style="edgeStyle=none;curved=1;rounded=0;orthogonalLoop=1;jettySize=auto;html=1;fontSize=12;startSize=8;endSize=8;" edge="1" parent="1" source="An8mYX0iyclEcx4Pc8yn-14" target="An8mYX0iyclEcx4Pc8yn-15">
          <mxGeometry relative="1" as="geometry" />
        </mxCell>
        <mxCell id="An8mYX0iyclEcx4Pc8yn-29" value="" style="edgeStyle=none;curved=1;rounded=0;orthogonalLoop=1;jettySize=auto;html=1;fontSize=12;startSize=8;endSize=8;" edge="1" parent="1" source="An8mYX0iyclEcx4Pc8yn-14" target="An8mYX0iyclEcx4Pc8yn-28">
          <mxGeometry relative="1" as="geometry" />
        </mxCell>
        <mxCell id="An8mYX0iyclEcx4Pc8yn-14" value="i in enumerate(e)" style="rhombus;whiteSpace=wrap;html=1;" vertex="1" parent="1">
          <mxGeometry x="272" y="268" width="80" height="80" as="geometry" />
        </mxCell>
        <mxCell id="An8mYX0iyclEcx4Pc8yn-22" value="" style="edgeStyle=none;curved=1;rounded=0;orthogonalLoop=1;jettySize=auto;html=1;fontSize=12;startSize=8;endSize=8;" edge="1" parent="1" source="An8mYX0iyclEcx4Pc8yn-15" target="An8mYX0iyclEcx4Pc8yn-16">
          <mxGeometry relative="1" as="geometry" />
        </mxCell>
        <mxCell id="An8mYX0iyclEcx4Pc8yn-31" value="" style="edgeStyle=none;curved=1;rounded=0;orthogonalLoop=1;jettySize=auto;html=1;fontSize=12;startSize=8;endSize=8;" edge="1" parent="1" source="An8mYX0iyclEcx4Pc8yn-15">
          <mxGeometry relative="1" as="geometry">
            <mxPoint x="297" y="266" as="targetPoint" />
            <Array as="points">
              <mxPoint x="229" y="247" />
            </Array>
          </mxGeometry>
        </mxCell>
        <mxCell id="An8mYX0iyclEcx4Pc8yn-15" value="if v% k != 0" style="rhombus;whiteSpace=wrap;html=1;" vertex="1" parent="1">
          <mxGeometry x="160" y="270" width="80" height="80" as="geometry" />
        </mxCell>
        <mxCell id="An8mYX0iyclEcx4Pc8yn-26" style="edgeStyle=none;curved=1;rounded=0;orthogonalLoop=1;jettySize=auto;html=1;fontSize=12;startSize=8;endSize=8;entryX=0.5;entryY=0;entryDx=0;entryDy=0;" edge="1" parent="1" source="An8mYX0iyclEcx4Pc8yn-16" target="An8mYX0iyclEcx4Pc8yn-14">
          <mxGeometry relative="1" as="geometry">
            <mxPoint x="291" y="237" as="targetPoint" />
            <Array as="points">
              <mxPoint x="51" y="237" />
              <mxPoint x="235" y="230" />
            </Array>
          </mxGeometry>
        </mxCell>
        <mxCell id="An8mYX0iyclEcx4Pc8yn-16" value="append v to e_out" style="rounded=0;whiteSpace=wrap;html=1;" vertex="1" parent="1">
          <mxGeometry x="-9" y="278" width="120" height="60" as="geometry" />
        </mxCell>
        <mxCell id="An8mYX0iyclEcx4Pc8yn-21" value="" style="endArrow=classic;html=1;rounded=0;fontSize=12;startSize=8;endSize=8;curved=1;" edge="1" parent="1" target="An8mYX0iyclEcx4Pc8yn-14">
          <mxGeometry width="50" height="50" relative="1" as="geometry">
            <mxPoint x="380" y="310" as="sourcePoint" />
            <mxPoint x="430" y="260" as="targetPoint" />
          </mxGeometry>
        </mxCell>
        <mxCell id="An8mYX0iyclEcx4Pc8yn-23" value="N" style="text;strokeColor=none;align=center;fillColor=none;html=1;verticalAlign=middle;whiteSpace=wrap;rounded=0;" vertex="1" parent="1">
          <mxGeometry x="344" y="283" width="60" height="30" as="geometry" />
        </mxCell>
        <mxCell id="An8mYX0iyclEcx4Pc8yn-24" value="Y" style="text;strokeColor=none;align=center;fillColor=none;html=1;verticalAlign=middle;whiteSpace=wrap;rounded=0;" vertex="1" parent="1">
          <mxGeometry x="229" y="280" width="60" height="30" as="geometry" />
        </mxCell>
        <mxCell id="An8mYX0iyclEcx4Pc8yn-25" value="Y" style="text;strokeColor=none;align=center;fillColor=none;html=1;verticalAlign=middle;whiteSpace=wrap;rounded=0;" vertex="1" parent="1">
          <mxGeometry x="114" y="283" width="60" height="30" as="geometry" />
        </mxCell>
        <mxCell id="An8mYX0iyclEcx4Pc8yn-34" value="" style="edgeStyle=none;curved=1;rounded=0;orthogonalLoop=1;jettySize=auto;html=1;fontSize=12;startSize=8;endSize=8;" edge="1" parent="1" source="An8mYX0iyclEcx4Pc8yn-28" target="An8mYX0iyclEcx4Pc8yn-33">
          <mxGeometry relative="1" as="geometry" />
        </mxCell>
        <mxCell id="An8mYX0iyclEcx4Pc8yn-28" value="print e_out" style="shape=parallelogram;perimeter=parallelogramPerimeter;whiteSpace=wrap;html=1;fixedSize=1;" vertex="1" parent="1">
          <mxGeometry x="252" y="386" width="120" height="60" as="geometry" />
        </mxCell>
        <mxCell id="An8mYX0iyclEcx4Pc8yn-32" value="N" style="text;strokeColor=none;align=center;fillColor=none;html=1;verticalAlign=middle;whiteSpace=wrap;rounded=0;" vertex="1" parent="1">
          <mxGeometry x="187" y="245" width="60" height="30" as="geometry" />
        </mxCell>
        <mxCell id="An8mYX0iyclEcx4Pc8yn-33" value="End" style="ellipse;whiteSpace=wrap;html=1;" vertex="1" parent="1">
          <mxGeometry x="252" y="487" width="118" height="58" as="geometry" />
        </mxCell>
      </root>
    </mxGraphModel>
  </diagram>
</mxfile>
